<svg width="24" height="24" viewBox="0 0 24 24" fill="none" xmlns="http://www.w3.org/2000/svg">
<path d="M11.4629 11.4707L5.46484 17.4688L6.5255 18.5294L12.5235 12.5314L11.4629 11.4707Z" fill="#1C7BBC"/>
<path d="M12.7513 22.5C12.6563 22.5003 12.5622 22.4825 12.4738 22.4475C12.351 22.3986 12.2432 22.318 12.1616 22.2139C12.0799 22.1098 12.0272 21.986 12.0088 21.855L11.2588 16.605L12.7588 16.395L13.3213 20.3475L15.7513 18.39V12.75C15.7508 12.6513 15.7697 12.5535 15.807 12.4621C15.8443 12.3707 15.8993 12.2876 15.9688 12.2175L19.0213 9.16505C19.6503 8.54033 20.1492 7.7971 20.489 6.97833C20.8289 6.15957 21.003 5.28154 21.0013 4.39505V3.00005H19.6063C18.7198 2.99836 17.8418 3.17249 17.023 3.51235C16.2043 3.85222 15.461 4.35107 14.8363 4.98005L11.7838 8.03255C11.7138 8.10206 11.6306 8.15705 11.5393 8.19437C11.4479 8.2317 11.35 8.25062 11.2513 8.25005H5.61133L3.65383 10.695L7.60633 11.2575L7.39633 12.7575L2.14633 12.0075C2.01534 11.9892 1.89153 11.9365 1.78748 11.8548C1.68342 11.7731 1.60281 11.6654 1.55383 11.5425C1.50424 11.4188 1.48852 11.2841 1.5083 11.1523C1.52807 11.0205 1.58262 10.8963 1.66633 10.7925L4.66633 7.04255C4.73542 6.95278 4.82395 6.87983 4.92527 6.82917C5.02658 6.77851 5.13806 6.75146 5.25133 6.75005H10.9438L13.7713 3.91505C14.5357 3.14637 15.4451 2.5371 16.4467 2.12254C17.4483 1.70798 18.5223 1.49639 19.6063 1.50005H21.0013C21.3992 1.50005 21.7807 1.65808 22.062 1.93939C22.3433 2.22069 22.5013 2.60222 22.5013 3.00005V4.39505C22.505 5.47907 22.2934 6.55304 21.8788 7.55467C21.4643 8.5563 20.855 9.46567 20.0863 10.23L17.2513 13.0575V18.75C17.2508 18.8627 17.2249 18.9738 17.1756 19.0751C17.1262 19.1763 17.0547 19.2652 16.9663 19.335L13.2163 22.335C13.0844 22.4409 12.9205 22.4991 12.7513 22.5Z" fill="#1C7BBC"/>
</svg>
