<svg width="56" height="56" viewBox="0 0 56 56" fill="none" xmlns="http://www.w3.org/2000/svg">
<rect width="56" height="56" rx="28" fill="#1C7BBC"/>
<path d="M21 40.0001C20.7348 40.0001 20.4804 39.8947 20.2929 39.7072C20.1054 39.5196 20 39.2653 20 39.0001V17.0001C20 16.8263 20.0453 16.6555 20.1314 16.5046C20.2175 16.3536 20.3414 16.2277 20.491 16.1392C20.6406 16.0508 20.8106 16.0028 20.9844 16.0001C21.1582 15.9974 21.3296 16.04 21.4819 16.1238L41.4819 27.1238C41.6388 27.2101 41.7697 27.3369 41.8608 27.491C41.952 27.6452 42 27.821 42 28C42 28.1791 41.952 28.3549 41.8608 28.509C41.7697 28.6632 41.6388 28.79 41.4819 28.8763L21.4819 39.8763C21.3343 39.9575 21.1685 40 21 40.0001Z" fill="white"/>
</svg>
